<svg width="585" height="436" viewBox="0 0 585 436" fill="none" xmlns="http://www.w3.org/2000/svg">
<g clip-path="url(#clip0_1_32)">
<mask id="mask0_1_32" style="mask-type:luminance" maskUnits="userSpaceOnUse" x="0" y="0" width="585" height="436">
<path d="M585 0H0V436H585V0Z" fill="white"/>
</mask>
<g mask="url(#mask0_1_32)">
<path d="M471.461 161.333L144.854 56.7247L144.966 261.395L471.574 366.003L471.461 161.333Z" fill="white" stroke="#505050"/>
<path d="M458.966 171.332L142.361 69.927L142.427 189.704L459.032 291.109L458.966 171.332Z" fill="#CEE4F0" stroke="#505050"/>
<path d="M183.088 91.7217L134.031 76.0093L134.059 127.521L183.116 143.233L183.088 91.7217Z" fill="white" stroke="#505050"/>
<path d="M183.125 159.986L134.068 144.274L134.096 195.785L183.153 211.498L183.125 159.986Z" fill="white" stroke="#505050"/>
<path d="M271.475 188.284L222.418 172.572L222.446 224.083L271.503 239.796L271.475 188.284Z" fill="white" stroke="#505050"/>
<path d="M361.491 217.115L312.434 201.403L312.462 252.914L361.519 268.627L361.491 217.115Z" fill="white" stroke="#505050"/>
<path d="M450.674 245.679L401.617 229.967L401.645 281.478L450.702 297.191L450.674 245.679Z" fill="white" stroke="#505050"/>
<path d="M271.437 120.019L222.38 104.307L222.408 155.818L271.465 171.531L271.437 120.019Z" fill="white" stroke="#505050"/>
<path d="M361.454 148.85L312.397 133.138L312.425 184.649L361.482 200.362L361.454 148.85Z" fill="white" stroke="#505050"/>
<path d="M450.637 177.414L401.58 161.702L401.608 213.213L450.665 228.926L450.637 177.414Z" fill="white" stroke="#505050"/>
<path d="M463.22 330.201L136.613 225.593L136.636 267.477L463.243 372.086L463.22 330.201Z" fill="#F8ECC5" stroke="#505050"/>
<path d="M184.022 275.779L103.293 249.923L103.316 291.807L184.045 317.664L184.022 275.779Z" fill="white" stroke="#505050"/>
<path d="M274.033 295.858L193.304 270.002L193.327 311.886L274.056 337.743L274.033 295.858Z" fill="white" stroke="#505050"/>
<path d="M364.045 315.937L283.316 290.081L283.339 331.965L364.068 357.822L364.045 315.937Z" fill="white" stroke="#505050"/>
<path d="M454.057 336.016L373.328 310.16L373.351 352.044L454.08 377.901L454.057 336.016Z" fill="white" stroke="#505050"/>
<g filter="url(#filter0_d_1_32)">
<path d="M452.104 309.06C452.104 310.533 453.298 311.727 454.771 311.727C456.244 311.727 457.437 310.533 457.437 309.06C457.437 307.587 456.244 306.393 454.771 306.393C453.298 306.393 452.104 307.587 452.104 309.06ZM454.771 309.56H519.771V308.56H454.771V309.56Z" fill="black"/>
<path d="M146.437 245.06C146.437 243.587 145.244 242.393 143.771 242.393C142.298 242.393 141.104 243.587 141.104 245.06C141.104 246.533 142.298 247.727 143.771 247.727C145.244 247.727 146.437 246.533 146.437 245.06ZM143.771 244.56H68.7708V245.56H143.771V244.56Z" fill="black"/>
<path d="M20.4129 247.924L18.0265 239.197H19.1004L20.9242 246.305H21.0094L22.8674 239.197H24.0606L25.9185 246.305H26.0038L27.8276 239.197H28.9015L26.5151 247.924H25.4242L23.4981 240.969H23.4299L21.5038 247.924H20.4129ZM30.0819 247.924V241.379H31.0876V247.924H30.0819ZM30.5933 240.288C30.3972 240.288 30.2282 240.221 30.0862 240.087C29.9469 239.954 29.8773 239.793 29.8773 239.606C29.8773 239.418 29.9469 239.258 30.0862 239.124C30.2282 238.991 30.3972 238.924 30.5933 238.924C30.7893 238.924 30.9569 238.991 31.0961 239.124C31.2381 239.258 31.3092 239.418 31.3092 239.606C31.3092 239.793 31.2381 239.954 31.0961 240.087C30.9569 240.221 30.7893 240.288 30.5933 240.288ZM33.9352 243.986V247.924H32.9295V241.379H33.9011V242.401H33.9864C34.1398 242.069 34.3727 241.802 34.6852 241.6C34.9977 241.396 35.4011 241.293 35.8955 241.293C36.3386 241.293 36.7264 241.384 37.0588 241.566C37.3912 241.745 37.6497 242.018 37.8344 242.384C38.019 242.748 38.1114 243.208 38.1114 243.765V247.924H37.1057V243.833C37.1057 243.319 36.9722 242.918 36.7051 242.631C36.4381 242.342 36.0716 242.197 35.6057 242.197C35.2847 242.197 34.9977 242.266 34.7449 242.406C34.4949 242.545 34.2974 242.748 34.1526 243.015C34.0077 243.282 33.9352 243.606 33.9352 243.986ZM42.4207 248.06C41.8752 248.06 41.3937 247.923 40.9761 247.647C40.5585 247.369 40.2318 246.977 39.996 246.471C39.7602 245.962 39.6423 245.361 39.6423 244.668C39.6423 243.981 39.7602 243.384 39.996 242.879C40.2318 242.373 40.5599 241.982 40.9803 241.707C41.4008 241.431 41.8866 241.293 42.4377 241.293C42.8639 241.293 43.2005 241.364 43.4477 241.506C43.6977 241.646 43.888 241.805 44.0187 241.984C44.1522 242.16 44.2559 242.305 44.3298 242.418H44.415V239.197H45.4207V247.924H44.4491V246.918H44.3298C44.2559 247.038 44.1508 247.188 44.0144 247.37C43.8781 247.549 43.6835 247.71 43.4306 247.852C43.1778 247.991 42.8411 248.06 42.4207 248.06ZM42.557 247.157C42.9604 247.157 43.3014 247.052 43.5798 246.842C43.8582 246.629 44.0698 246.335 44.2147 245.96C44.3596 245.582 44.432 245.146 44.432 244.651C44.432 244.163 44.361 243.735 44.219 243.369C44.0769 242.999 43.8667 242.712 43.5883 242.508C43.3099 242.3 42.9661 242.197 42.557 242.197C42.1309 242.197 41.7758 242.306 41.4917 242.525C41.2104 242.741 40.9988 243.035 40.8568 243.407C40.7175 243.776 40.6479 244.191 40.6479 244.651C40.6479 245.117 40.719 245.54 40.861 245.921C41.0059 246.299 41.219 246.6 41.5002 246.825C41.7843 247.046 42.1366 247.157 42.557 247.157ZM50.0613 248.06C49.4704 248.06 48.9519 247.92 48.5059 247.638C48.0627 247.357 47.7161 246.964 47.4661 246.458C47.219 245.952 47.0954 245.361 47.0954 244.685C47.0954 244.004 47.219 243.408 47.4661 242.9C47.7161 242.391 48.0627 241.996 48.5059 241.715C48.9519 241.434 49.4704 241.293 50.0613 241.293C50.6522 241.293 51.1693 241.434 51.6124 241.715C52.0585 241.996 52.405 242.391 52.6522 242.9C52.9022 243.408 53.0272 244.004 53.0272 244.685C53.0272 245.361 52.9022 245.952 52.6522 246.458C52.405 246.964 52.0585 247.357 51.6124 247.638C51.1693 247.92 50.6522 248.06 50.0613 248.06ZM50.0613 247.157C50.5102 247.157 50.8795 247.042 51.1693 246.812C51.459 246.582 51.6735 246.279 51.8127 245.904C51.9519 245.529 52.0215 245.123 52.0215 244.685C52.0215 244.248 51.9519 243.84 51.8127 243.462C51.6735 243.085 51.459 242.779 51.1693 242.546C50.8795 242.313 50.5102 242.197 50.0613 242.197C49.6124 242.197 49.2431 242.313 48.9533 242.546C48.6636 242.779 48.4491 243.085 48.3099 243.462C48.1707 243.84 48.1011 244.248 48.1011 244.685C48.1011 245.123 48.1707 245.529 48.3099 245.904C48.4491 246.279 48.6636 246.582 48.9533 246.812C49.2431 247.042 49.6124 247.157 50.0613 247.157ZM55.8227 247.924L53.8283 241.379H54.8852L56.2999 246.39H56.3681L57.7658 241.379H58.8397L60.2204 246.373H60.2886L61.7033 241.379H62.7602L60.7658 247.924H59.7772L58.3454 242.896H58.2431L56.8113 247.924H55.8227Z" fill="black"/>
<path d="M527.828 311.924V303.197H528.885V310.987H532.941V311.924H527.828ZM536.368 312.077C535.953 312.077 535.576 311.999 535.238 311.843C534.9 311.684 534.632 311.455 534.433 311.157C534.234 310.856 534.135 310.492 534.135 310.066C534.135 309.691 534.208 309.387 534.356 309.154C534.504 308.918 534.701 308.734 534.949 308.6C535.196 308.467 535.468 308.367 535.767 308.302C536.068 308.234 536.37 308.18 536.674 308.14C537.072 308.089 537.395 308.05 537.642 308.025C537.892 307.996 538.074 307.95 538.187 307.884C538.304 307.819 538.362 307.705 538.362 307.543V307.509C538.362 307.089 538.247 306.762 538.017 306.529C537.789 306.296 537.444 306.18 536.981 306.18C536.501 306.18 536.125 306.285 535.852 306.495C535.579 306.705 535.387 306.93 535.277 307.168L534.322 306.827C534.493 306.43 534.72 306.12 535.004 305.898C535.291 305.674 535.603 305.518 535.941 305.43C536.282 305.339 536.618 305.293 536.947 305.293C537.157 305.293 537.399 305.319 537.672 305.37C537.947 305.418 538.213 305.519 538.468 305.673C538.727 305.826 538.941 306.058 539.112 306.367C539.282 306.677 539.368 307.092 539.368 307.612V311.924H538.362V311.038H538.311C538.243 311.18 538.129 311.332 537.97 311.494C537.811 311.656 537.599 311.793 537.335 311.907C537.071 312.021 536.748 312.077 536.368 312.077ZM536.521 311.174C536.919 311.174 537.254 311.096 537.527 310.94C537.802 310.783 538.01 310.582 538.149 310.335C538.291 310.087 538.362 309.827 538.362 309.555V308.634C538.319 308.685 538.226 308.732 538.081 308.775C537.939 308.815 537.774 308.85 537.586 308.881C537.402 308.91 537.221 308.935 537.045 308.958C536.872 308.978 536.731 308.995 536.623 309.009C536.362 309.043 536.118 309.099 535.89 309.175C535.666 309.249 535.484 309.362 535.345 309.512C535.208 309.66 535.14 309.862 535.14 310.117C535.14 310.467 535.27 310.731 535.528 310.91C535.789 311.086 536.12 311.174 536.521 311.174ZM541.617 314.379C541.446 314.379 541.294 314.364 541.161 314.336C541.027 314.31 540.935 314.285 540.884 314.259L541.139 313.373C541.384 313.435 541.599 313.458 541.787 313.441C541.974 313.424 542.141 313.34 542.286 313.19C542.433 313.042 542.568 312.802 542.69 312.469L542.878 311.958L540.457 305.379H541.548L543.355 310.594H543.423L545.23 305.379H546.321L543.543 312.879C543.418 313.217 543.263 313.496 543.078 313.718C542.894 313.942 542.679 314.109 542.435 314.217C542.193 314.325 541.92 314.379 541.617 314.379ZM550.073 312.06C549.482 312.06 548.964 311.92 548.518 311.638C548.075 311.357 547.728 310.964 547.478 310.458C547.231 309.952 547.107 309.362 547.107 308.685C547.107 308.004 547.231 307.408 547.478 306.9C547.728 306.391 548.075 305.996 548.518 305.715C548.964 305.434 549.482 305.293 550.073 305.293C550.664 305.293 551.181 305.434 551.624 305.715C552.07 305.996 552.417 306.391 552.664 306.9C552.914 307.408 553.039 308.004 553.039 308.685C553.039 309.362 552.914 309.952 552.664 310.458C552.417 310.964 552.07 311.357 551.624 311.638C551.181 311.92 550.664 312.06 550.073 312.06ZM550.073 311.157C550.522 311.157 550.891 311.042 551.181 310.812C551.471 310.582 551.685 310.279 551.825 309.904C551.964 309.529 552.033 309.123 552.033 308.685C552.033 308.248 551.964 307.84 551.825 307.462C551.685 307.085 551.471 306.779 551.181 306.546C550.891 306.313 550.522 306.197 550.073 306.197C549.624 306.197 549.255 306.313 548.965 306.546C548.675 306.779 548.461 307.085 548.322 307.462C548.183 307.84 548.113 308.248 548.113 308.685C548.113 309.123 548.183 309.529 548.322 309.904C548.461 310.279 548.675 310.582 548.965 310.812C549.255 311.042 549.624 311.157 550.073 311.157ZM558.699 309.248V305.379H559.705V311.924H558.699V310.816H558.631C558.478 311.148 558.239 311.431 557.915 311.664C557.591 311.894 557.182 312.009 556.688 312.009C556.279 312.009 555.915 311.92 555.597 311.741C555.279 311.559 555.029 311.286 554.847 310.923C554.665 310.556 554.574 310.094 554.574 309.538V305.379H555.58V309.469C555.58 309.947 555.713 310.327 555.981 310.612C556.25 310.896 556.594 311.038 557.012 311.038C557.262 311.038 557.516 310.974 557.775 310.846C558.036 310.718 558.255 310.522 558.431 310.258C558.61 309.994 558.699 309.657 558.699 309.248ZM564.394 305.379V306.231H561.001V305.379H564.394ZM561.99 303.81H562.996V310.049C562.996 310.333 563.037 310.546 563.119 310.688C563.205 310.827 563.313 310.921 563.443 310.969C563.577 311.015 563.717 311.038 563.865 311.038C563.976 311.038 564.067 311.032 564.138 311.021C564.209 311.006 564.266 310.995 564.308 310.987L564.513 311.89C564.445 311.915 564.349 311.941 564.227 311.967C564.105 311.995 563.95 312.009 563.763 312.009C563.479 312.009 563.2 311.948 562.928 311.826C562.658 311.704 562.433 311.518 562.254 311.268C562.078 311.018 561.99 310.702 561.99 310.322V303.81Z" fill="black"/>
<path d="M202.271 105.727C203.744 105.727 204.937 104.533 204.937 103.06C204.937 101.587 203.744 100.393 202.271 100.393C200.798 100.393 199.604 101.587 199.604 103.06C199.604 104.533 200.798 105.727 202.271 105.727ZM202.771 103.06V31.0601H201.771V103.06H202.771Z" fill="black"/>
<path d="M336.771 163.727C338.244 163.727 339.437 162.533 339.437 161.06C339.437 159.587 338.244 158.393 336.771 158.393C335.298 158.393 334.104 159.587 334.104 161.06C334.104 162.533 335.298 163.727 336.771 163.727ZM337.271 161.06V89.0601H336.271V161.06H337.271Z" fill="black"/>
<path d="M326.828 78.9237V70.1964H327.885V74.526H327.987L331.907 70.1964H333.288L329.623 74.1339L333.288 78.9237H332.01L328.976 74.8669L327.885 76.0942V78.9237H326.828ZM336.783 79.0601C336.153 79.0601 335.609 78.9209 335.151 78.6425C334.697 78.3612 334.346 77.9692 334.099 77.4663C333.854 76.9606 333.732 76.3726 333.732 75.7021C333.732 75.0317 333.854 74.4408 334.099 73.9294C334.346 73.4152 334.69 73.0146 335.13 72.7277C335.573 72.4379 336.09 72.293 336.681 72.293C337.022 72.293 337.359 72.3498 337.691 72.4635C338.023 72.5771 338.326 72.7618 338.599 73.0175C338.871 73.2703 339.089 73.6055 339.251 74.0231C339.413 74.4408 339.494 74.955 339.494 75.5658V75.9919H334.448V75.1226H338.471C338.471 74.7533 338.397 74.4237 338.249 74.1339C338.104 73.8442 337.897 73.6155 337.627 73.4479C337.36 73.2802 337.045 73.1964 336.681 73.1964C336.281 73.1964 335.934 73.2959 335.641 73.4947C335.352 73.6908 335.129 73.9464 334.972 74.2618C334.816 74.5771 334.738 74.9152 334.738 75.276V75.8555C334.738 76.3498 334.823 76.7689 334.994 77.1126C335.167 77.4535 335.407 77.7135 335.714 77.8925C336.021 78.0686 336.377 78.1567 336.783 78.1567C337.048 78.1567 337.286 78.1197 337.499 78.0459C337.715 77.9692 337.901 77.8555 338.058 77.705C338.214 77.5515 338.335 77.3612 338.42 77.1339L339.391 77.4067C339.289 77.7362 339.117 78.026 338.876 78.276C338.634 78.5231 338.336 78.7163 337.981 78.8555C337.626 78.9919 337.227 79.0601 336.783 79.0601ZM341.472 81.3783C341.302 81.3783 341.15 81.364 341.016 81.3356C340.883 81.3101 340.79 81.2845 340.739 81.2589L340.995 80.3726C341.239 80.4351 341.455 80.4578 341.642 80.4408C341.83 80.4237 341.996 80.3399 342.141 80.1893C342.289 80.0416 342.424 79.8015 342.546 79.4692L342.733 78.9578L340.313 72.3783H341.404L343.211 77.5942H343.279L345.086 72.3783H346.177L343.398 79.8783C343.273 80.2163 343.118 80.4961 342.934 80.7177C342.749 80.9422 342.534 81.1084 342.29 81.2163C342.049 81.3243 341.776 81.3783 341.472 81.3783Z" fill="black"/>
<path d="M177.828 22.9237V14.1964H178.885V18.526H178.987L182.907 14.1964H184.288L180.623 18.1339L184.288 22.9237H183.01L179.976 18.8669L178.885 20.0942V22.9237H177.828ZM187.783 23.0601C187.153 23.0601 186.609 22.9209 186.151 22.6425C185.697 22.3612 185.346 21.9692 185.099 21.4663C184.854 20.9606 184.732 20.3726 184.732 19.7021C184.732 19.0317 184.854 18.4408 185.099 17.9294C185.346 17.4152 185.69 17.0146 186.13 16.7277C186.573 16.4379 187.09 16.293 187.681 16.293C188.022 16.293 188.359 16.3498 188.691 16.4635C189.023 16.5771 189.326 16.7618 189.599 17.0175C189.871 17.2703 190.089 17.6055 190.251 18.0231C190.413 18.4408 190.494 18.955 190.494 19.5658V19.9919H185.448V19.1226H189.471C189.471 18.7533 189.397 18.4237 189.249 18.1339C189.104 17.8442 188.897 17.6155 188.627 17.4479C188.36 17.2802 188.045 17.1964 187.681 17.1964C187.281 17.1964 186.934 17.2959 186.641 17.4947C186.352 17.6908 186.129 17.9464 185.972 18.2618C185.816 18.5771 185.738 18.9152 185.738 19.276V19.8555C185.738 20.3498 185.823 20.7689 185.994 21.1126C186.167 21.4535 186.407 21.7135 186.714 21.8925C187.021 22.0686 187.377 22.1567 187.783 22.1567C188.048 22.1567 188.286 22.1197 188.499 22.0459C188.715 21.9692 188.901 21.8555 189.058 21.705C189.214 21.5515 189.335 21.3612 189.42 21.1339L190.391 21.4067C190.289 21.7362 190.117 22.026 189.876 22.276C189.634 22.5231 189.336 22.7163 188.981 22.8555C188.626 22.9919 188.227 23.0601 187.783 23.0601ZM192.472 25.3783C192.302 25.3783 192.15 25.364 192.016 25.3356C191.883 25.3101 191.79 25.2845 191.739 25.2589L191.995 24.3726C192.239 24.4351 192.455 24.4578 192.642 24.4408C192.83 24.4237 192.996 24.3399 193.141 24.1893C193.289 24.0416 193.424 23.8015 193.546 23.4692L193.733 22.9578L191.313 16.3783H192.404L194.211 21.5942H194.279L196.086 16.3783H197.177L194.398 23.8783C194.273 24.2163 194.118 24.4961 193.934 24.7177C193.749 24.9422 193.534 25.1084 193.29 25.2163C193.049 25.3243 192.776 25.3783 192.472 25.3783ZM203.805 23.0771C203.39 23.0771 203.014 22.999 202.676 22.8427C202.338 22.6836 202.069 22.455 201.87 22.1567C201.672 21.8555 201.572 21.4919 201.572 21.0658C201.572 20.6908 201.646 20.3868 201.794 20.1538C201.941 19.918 202.139 19.7334 202.386 19.5998C202.633 19.4663 202.906 19.3669 203.204 19.3015C203.505 19.2334 203.808 19.1794 204.112 19.1396C204.51 19.0885 204.832 19.0501 205.079 19.0246C205.329 18.9961 205.511 18.9493 205.625 18.8839C205.741 18.8186 205.799 18.705 205.799 18.543V18.5089C205.799 18.0885 205.684 17.7618 205.454 17.5288C205.227 17.2959 204.882 17.1794 204.419 17.1794C203.939 17.1794 203.562 17.2845 203.289 17.4947C203.017 17.705 202.825 17.9294 202.714 18.168L201.76 17.8271C201.93 17.4294 202.157 17.1197 202.441 16.8981C202.728 16.6737 203.041 16.5175 203.379 16.4294C203.72 16.3385 204.055 16.293 204.385 16.293C204.595 16.293 204.836 16.3186 205.109 16.3697C205.385 16.418 205.65 16.5189 205.906 16.6723C206.164 16.8257 206.379 17.0572 206.549 17.3669C206.72 17.6765 206.805 18.0913 206.805 18.6112V22.9237H205.799V22.0373H205.748C205.68 22.1794 205.566 22.3314 205.407 22.4933C205.248 22.6552 205.037 22.793 204.772 22.9067C204.508 23.0203 204.186 23.0771 203.805 23.0771ZM203.958 22.1737C204.356 22.1737 204.691 22.0956 204.964 21.9393C205.24 21.7831 205.447 21.5814 205.586 21.3342C205.728 21.0871 205.799 20.8271 205.799 20.5544V19.6339C205.757 19.6851 205.663 19.7319 205.518 19.7746C205.376 19.8143 205.211 19.8498 205.024 19.8811C204.839 19.9095 204.659 19.9351 204.483 19.9578C204.309 19.9777 204.169 19.9947 204.061 20.0089C203.799 20.043 203.555 20.0984 203.328 20.1751C203.103 20.249 202.922 20.3612 202.782 20.5118C202.646 20.6595 202.578 20.8612 202.578 21.1169C202.578 21.4663 202.707 21.7305 202.966 21.9095C203.227 22.0856 203.558 22.1737 203.958 22.1737ZM208.641 22.9237V16.3783H209.612V17.3669H209.68C209.8 17.043 210.016 16.7802 210.328 16.5785C210.641 16.3768 210.993 16.276 211.385 16.276C211.459 16.276 211.551 16.2774 211.662 16.2802C211.773 16.2831 211.857 16.2873 211.913 16.293V17.3158C211.879 17.3072 211.801 17.2944 211.679 17.2774C211.56 17.2575 211.433 17.2476 211.3 17.2476C210.982 17.2476 210.697 17.3143 210.447 17.4479C210.2 17.5785 210.004 17.7604 209.859 17.9933C209.717 18.2234 209.646 18.4862 209.646 18.7817V22.9237H208.641ZM215.651 23.0601C215.02 23.0601 214.476 22.9209 214.019 22.6425C213.564 22.3612 213.213 21.9692 212.966 21.4663C212.722 20.9606 212.599 20.3726 212.599 19.7021C212.599 19.0317 212.722 18.4408 212.966 17.9294C213.213 17.4152 213.557 17.0146 213.997 16.7277C214.44 16.4379 214.957 16.293 215.548 16.293C215.889 16.293 216.226 16.3498 216.558 16.4635C216.891 16.5771 217.193 16.7618 217.466 17.0175C217.739 17.2703 217.956 17.6055 218.118 18.0231C218.28 18.4408 218.361 18.955 218.361 19.5658V19.9919H213.315V19.1226H217.338C217.338 18.7533 217.264 18.4237 217.117 18.1339C216.972 17.8442 216.764 17.6155 216.494 17.4479C216.227 17.2802 215.912 17.1964 215.548 17.1964C215.148 17.1964 214.801 17.2959 214.509 17.4947C214.219 17.6908 213.996 17.9464 213.84 18.2618C213.683 18.5771 213.605 18.9152 213.605 19.276V19.8555C213.605 20.3498 213.69 20.7689 213.861 21.1126C214.034 21.4535 214.274 21.7135 214.581 21.8925C214.888 22.0686 215.244 22.1567 215.651 22.1567C215.915 22.1567 216.153 22.1197 216.367 22.0459C216.582 21.9692 216.769 21.8555 216.925 21.705C217.081 21.5515 217.202 21.3612 217.287 21.1339L218.259 21.4067C218.156 21.7362 217.984 22.026 217.743 22.276C217.501 22.5231 217.203 22.7163 216.848 22.8555C216.493 22.9919 216.094 23.0601 215.651 23.0601ZM221.817 23.0771C221.402 23.0771 221.026 22.999 220.688 22.8427C220.349 22.6836 220.081 22.455 219.882 22.1567C219.683 21.8555 219.584 21.4919 219.584 21.0658C219.584 20.6908 219.658 20.3868 219.805 20.1538C219.953 19.918 220.151 19.7334 220.398 19.5998C220.645 19.4663 220.918 19.3669 221.216 19.3015C221.517 19.2334 221.82 19.1794 222.124 19.1396C222.521 19.0885 222.844 19.0501 223.091 19.0246C223.341 18.9961 223.523 18.9493 223.636 18.8839C223.753 18.8186 223.811 18.705 223.811 18.543V18.5089C223.811 18.0885 223.696 17.7618 223.466 17.5288C223.239 17.2959 222.894 17.1794 222.43 17.1794C221.95 17.1794 221.574 17.2845 221.301 17.4947C221.028 17.705 220.837 17.9294 220.726 18.168L219.771 17.8271C219.942 17.4294 220.169 17.1197 220.453 16.8981C220.74 16.6737 221.053 16.5175 221.391 16.4294C221.732 16.3385 222.067 16.293 222.396 16.293C222.607 16.293 222.848 16.3186 223.121 16.3697C223.396 16.418 223.662 16.5189 223.918 16.6723C224.176 16.8257 224.391 17.0572 224.561 17.3669C224.732 17.6765 224.817 18.0913 224.817 18.6112V22.9237H223.811V22.0373H223.76C223.692 22.1794 223.578 22.3314 223.419 22.4933C223.26 22.6552 223.048 22.793 222.784 22.9067C222.52 23.0203 222.197 23.0771 221.817 23.0771ZM221.97 22.1737C222.368 22.1737 222.703 22.0956 222.976 21.9393C223.251 21.7831 223.459 21.5814 223.598 21.3342C223.74 21.0871 223.811 20.8271 223.811 20.5544V19.6339C223.769 19.6851 223.675 19.7319 223.53 19.7746C223.388 19.8143 223.223 19.8498 223.036 19.8811C222.851 19.9095 222.67 19.9351 222.494 19.9578C222.321 19.9777 222.18 19.9947 222.072 20.0089C221.811 20.043 221.567 20.0984 221.34 20.1751C221.115 20.249 220.933 20.3612 220.794 20.5118C220.658 20.6595 220.59 20.8612 220.59 21.1169C220.59 21.4663 220.719 21.7305 220.977 21.9095C221.239 22.0856 221.57 22.1737 221.97 22.1737Z" fill="black"/>
<path d="M410.271 342.393C408.798 342.393 407.604 343.587 407.604 345.06C407.604 346.533 408.798 347.727 410.271 347.727C411.744 347.727 412.937 346.533 412.937 345.06C412.937 343.587 411.744 342.393 410.271 342.393ZM409.771 345.06V405.06H410.771V345.06H409.771Z" fill="black"/>
<path d="M403.521 421.924H400.828V413.197H403.64C404.487 413.197 405.211 413.371 405.814 413.721C406.416 414.067 406.878 414.566 407.199 415.217C407.52 415.864 407.68 416.64 407.68 417.543C407.68 418.452 407.518 419.235 407.194 419.891C406.87 420.545 406.399 421.048 405.78 421.4C405.16 421.749 404.407 421.924 403.521 421.924ZM401.885 420.987H403.453C404.174 420.987 404.772 420.847 405.247 420.569C405.721 420.29 406.075 419.894 406.308 419.38C406.541 418.866 406.657 418.254 406.657 417.543C406.657 416.839 406.542 416.232 406.312 415.724C406.082 415.212 405.738 414.82 405.281 414.548C404.824 414.272 404.254 414.134 403.572 414.134H401.885V420.987ZM409.316 421.924V415.379H410.322V421.924H409.316ZM409.828 414.288C409.632 414.288 409.463 414.221 409.321 414.087C409.182 413.954 409.112 413.793 409.112 413.606C409.112 413.418 409.182 413.258 409.321 413.124C409.463 412.991 409.632 412.924 409.828 412.924C410.024 412.924 410.191 412.991 410.331 413.124C410.473 413.258 410.544 413.418 410.544 413.606C410.544 413.793 410.473 413.954 410.331 414.087C410.191 414.221 410.024 414.288 409.828 414.288ZM414.09 422.077C413.675 422.077 413.299 421.999 412.961 421.843C412.623 421.684 412.354 421.455 412.156 421.157C411.957 420.856 411.857 420.492 411.857 420.066C411.857 419.691 411.931 419.387 412.079 419.154C412.227 418.918 412.424 418.734 412.671 418.6C412.918 418.467 413.191 418.367 413.489 418.302C413.791 418.234 414.093 418.18 414.397 418.14C414.795 418.089 415.117 418.05 415.364 418.025C415.614 417.996 415.796 417.95 415.91 417.884C416.026 417.819 416.085 417.705 416.085 417.543V417.509C416.085 417.089 415.97 416.762 415.739 416.529C415.512 416.296 415.167 416.18 414.704 416.18C414.224 416.18 413.847 416.285 413.575 416.495C413.302 416.705 413.11 416.93 412.999 417.168L412.045 416.827C412.215 416.43 412.443 416.12 412.727 415.898C413.014 415.674 413.326 415.518 413.664 415.43C414.005 415.339 414.34 415.293 414.67 415.293C414.88 415.293 415.121 415.319 415.394 415.37C415.67 415.418 415.935 415.519 416.191 415.673C416.45 415.826 416.664 416.058 416.835 416.367C417.005 416.677 417.09 417.092 417.09 417.612V421.924H416.085V421.038H416.033C415.965 421.18 415.852 421.332 415.693 421.494C415.533 421.656 415.322 421.793 415.058 421.907C414.793 422.021 414.471 422.077 414.09 422.077ZM414.244 421.174C414.641 421.174 414.977 421.096 415.249 420.94C415.525 420.783 415.732 420.582 415.871 420.335C416.014 420.087 416.085 419.827 416.085 419.555V418.634C416.042 418.685 415.948 418.732 415.803 418.775C415.661 418.815 415.496 418.85 415.309 418.881C415.124 418.91 414.944 418.935 414.768 418.958C414.595 418.978 414.454 418.995 414.346 419.009C414.085 419.043 413.84 419.099 413.613 419.175C413.389 419.249 413.207 419.362 413.068 419.512C412.931 419.66 412.863 419.862 412.863 420.117C412.863 420.467 412.992 420.731 413.251 420.91C413.512 421.086 413.843 421.174 414.244 421.174ZM419.932 413.197V421.924H418.926V413.197H419.932Z" fill="black"/>
</g>
</g>
</g>
<defs>
<filter id="filter0_d_1_32" x="18.0265" y="14.1964" width="547.486" height="408.881" filterUnits="userSpaceOnUse" color-interpolation-filters="sRGB">
<feFlood flood-opacity="0" result="BackgroundImageFix"/>
<feColorMatrix in="SourceAlpha" type="matrix" values="0 0 0 0 0 0 0 0 0 0 0 0 0 0 0 0 0 0 127 0" result="hardAlpha"/>
<feOffset dx="1" dy="1"/>
<feComposite in2="hardAlpha" operator="out"/>
<feColorMatrix type="matrix" values="0 0 0 0 1 0 0 0 0 1 0 0 0 0 1 0 0 0 1 0"/>
<feBlend mode="normal" in2="BackgroundImageFix" result="effect1_dropShadow_1_32"/>
<feBlend mode="normal" in="SourceGraphic" in2="effect1_dropShadow_1_32" result="shape"/>
</filter>
<clipPath id="clip0_1_32">
<rect width="585" height="436" fill="white"/>
</clipPath>
</defs>
</svg>
